<?xml version="1.0" encoding="UTF-8" standalone="no"?>
<!-- Created with Inkscape (http://www.inkscape.org/) -->

<svg
   width="48"
   height="48"
   viewBox="0 0 12.7 12.7"
   version="1.1"
   id="svg1"
   inkscape:export-filename="../Pictures/filled-ellipse.svg"
   inkscape:export-xdpi="96"
   inkscape:export-ydpi="96"
   sodipodi:docname="ellipse.svg"
   inkscape:version="1.3 (0e150ed6c4, 2023-07-21)"
   xmlns:inkscape="http://www.inkscape.org/namespaces/inkscape"
   xmlns:sodipodi="http://sodipodi.sourceforge.net/DTD/sodipodi-0.dtd"
   xmlns="http://www.w3.org/2000/svg"
   xmlns:svg="http://www.w3.org/2000/svg">
  <sodipodi:namedview
     id="namedview1"
     pagecolor="#ffffff"
     bordercolor="#000000"
     borderopacity="0.25"
     inkscape:showpageshadow="false"
     inkscape:pageopacity="0.0"
     inkscape:pagecheckerboard="true"
     inkscape:deskcolor="#d1d1d1"
     inkscape:document-units="mm"
     showborder="false"
     borderlayer="false"
     inkscape:clip-to-page="false"
     shape-rendering="crispEdges"
     inkscape:zoom="11.474186"
     inkscape:cx="24.620483"
     inkscape:cy="25.840613"
     inkscape:window-width="1920"
     inkscape:window-height="1011"
     inkscape:window-x="0"
     inkscape:window-y="32"
     inkscape:window-maximized="1"
     inkscape:current-layer="layer1"
     showgrid="false" />
  <defs
     id="defs1" />
  <g
     inkscape:label="Layer 1"
     inkscape:groupmode="layer"
     id="layer1"
     transform="matrix(1.077692,0,0,1.0965287,-0.5884495,-0.31262188)"
     style="fill:#000000">
    <path
       id="path4"
       style="fill:#000000;fill-rule:evenodd;stroke:#000000;stroke-width:0.146035;stroke-dasharray:none;stroke-opacity:1"
       d="M 6.4382489,3.25362 A 3.854967,2.8226558 0 0 0 2.5831187,6.0761035 3.854967,2.8226558 0 0 0 6.4382489,8.8985871 3.854967,2.8226558 0 0 0 10.293379,6.0761035 3.854967,2.8226558 0 0 0 6.4382489,3.25362 Z m 0,0.3526281 a 3.4694703,2.4698239 0 0 1 0.1601656,0.00255 3.4694703,2.4698239 0 0 1 0.1597672,0.00802 3.4694703,2.4698239 0 0 1 0.1593687,0.013127 3.4694703,2.4698239 0 0 1 0.1581735,0.018234 3.4694703,2.4698239 0 0 1 0.1569782,0.023703 3.4694703,2.4698239 0 0 1 0.1549862,0.028809 3.4694703,2.4698239 0 0 1 0.152994,0.033549 3.4694703,2.4698239 0 0 1 0.1510019,0.038654 3.4694703,2.4698239 0 0 1 0.1478144,0.04376 3.4694703,2.4698239 0 0 1 0.1454241,0.0485 3.4694703,2.4698239 0 0 1 0.1414397,0.053241 3.4694703,2.4698239 0 0 1 0.1382524,0.05798 3.4694703,2.4698239 0 0 1 0.1342682,0.061993 3.4694703,2.4698239 0 0 1 0.1302839,0.066733 3.4694703,2.4698239 0 0 1 0.125503,0.070745 3.4694703,2.4698239 0 0 1 0.1211202,0.07512 3.4694703,2.4698239 0 0 1 0.1159408,0.078767 3.4694703,2.4698239 0 0 1 0.1103629,0.082414 3.4694703,2.4698239 0 0 1 0.1051833,0.08606 3.4694703,2.4698239 0 0 1 0.099606,0.089343 3.4694703,2.4698239 0 0 1 0.093629,0.092624 3.4694703,2.4698239 0 0 1 0.087653,0.095906 3.4694703,2.4698239 0 0 1 0.081278,0.098094 3.4694703,2.4698239 0 0 1 0.074506,0.1010114 3.4694703,2.4698239 0 0 1 0.068133,0.1031993 3.4694703,2.4698239 0 0 1 0.061362,0.1053874 3.4694703,2.4698239 0 0 1 0.054581,0.1075752 3.4694703,2.4698239 0 0 1 0.047411,0.1090339 3.4694703,2.4698239 0 0 1 0.04024,0.110128 3.4694703,2.4698239 0 0 1 0.03307,0.1115865 3.4694703,2.4698239 0 0 1 0.025899,0.1126805 3.4694703,2.4698239 0 0 1 0.018329,0.1134099 3.4694703,2.4698239 0 0 1 0.011159,0.1137745 3.4694703,2.4698239 0 0 1 0.00357,0.1141392 3.4694703,2.4698239 0 0 1 -0.02948,0.3223612 A 3.4694703,2.4698239 0 0 1 9.7893741,6.7153508 3.4694703,2.4698239 0 0 1 9.6435554,7.0213084 3.4694703,2.4698239 0 0 1 9.4427487,7.3108489 3.4694703,2.4698239 0 0 1 9.1909457,7.5796048 3.4694703,2.4698239 0 0 1 8.8917309,7.8224696 3.4694703,2.4698239 0 0 1 8.5502833,8.0354322 3.4694703,2.4698239 0 0 1 8.1729778,8.2152106 3.4694703,2.4698239 0 0 1 7.7657906,8.3577934 3.4694703,2.4698239 0 0 1 7.3362918,8.4617221 3.4694703,2.4698239 0 0 1 6.8912546,8.5248085 3.4694703,2.4698239 0 0 1 6.4382489,8.5459589 3.4694703,2.4698239 0 0 1 5.9852432,8.5248085 3.4694703,2.4698239 0 0 1 5.5402059,8.4617221 3.4694703,2.4698239 0 0 1 5.1107071,8.3577934 3.4694703,2.4698239 0 0 1 4.70352,8.2152106 3.4694703,2.4698239 0 0 1 4.3262144,8.0354322 3.4694703,2.4698239 0 0 1 3.9847669,7.8224696 3.4694703,2.4698239 0 0 1 3.6855521,7.5796048 3.4694703,2.4698239 0 0 1 3.4337494,7.3108489 3.4694703,2.4698239 0 0 1 3.2329449,7.0213073 3.4694703,2.4698239 0 0 1 3.0871224,6.7153559 3.4694703,2.4698239 0 0 1 2.9982744,6.3984647 3.4694703,2.4698239 0 0 1 2.9687911,6.0761035 3.4694703,2.4698239 0 0 1 2.9982744,5.7537423 3.4694703,2.4698239 0 0 1 3.0871224,5.4368511 3.4694703,2.4698239 0 0 1 3.2329449,5.1308997 3.4694703,2.4698239 0 0 1 3.4337494,4.8413582 3.4694703,2.4698239 0 0 1 3.6855521,4.5726023 3.4694703,2.4698239 0 0 1 3.9847669,4.3297374 3.4694703,2.4698239 0 0 1 4.3262144,4.1167748 3.4694703,2.4698239 0 0 1 4.70352,3.9369965 3.4694703,2.4698239 0 0 1 5.1107071,3.7944137 3.4694703,2.4698239 0 0 1 5.5402059,3.690485 3.4694703,2.4698239 0 0 1 5.9852432,3.6273985 3.4694703,2.4698239 0 0 1 6.4382489,3.6062481 Z" />
  </g>
</svg>
